<svg width="41" height="39" viewBox="0 0 41 39" fill="none" xmlns="http://www.w3.org/2000/svg">
<path fill-rule="evenodd" clip-rule="evenodd" d="M39.2811 11.2999C40.5172 14.2696 40.9441 17.3123 41 20.1988C40.8867 24.7694 39.3202 28.9737 36.7513 32.354C35.2642 33.8041 33.4582 34.1525 31.4491 32.216L31.2763 32.0442C30.8342 31.5918 30.3827 31.0284 29.9227 30.3418C27.6531 26.9528 25.5866 25.3336 23.8693 24.6509L33.1201 14.6786C33.6118 14.1485 33.2448 13.2734 32.5308 13.2734H28.2525C28.0285 13.2734 27.814 13.3683 27.6604 13.5354L18.9171 23.0528C18.9171 23.0528 18.8992 22.5599 18.8683 21.7377C18.9045 18.7423 18.8907 12.064 18.1954 6.78846C18.1401 5.95467 18.0893 5.38679 18.0475 5.21498C17.9869 4.967 17.9678 4.7191 17.9747 4.48418C17.9824 4.33498 17.9962 4.18965 18.0162 4.04805C18.1072 3.47177 18.3112 3.05354 18.3112 3.05354H18.2734C19.7218 -0.642716 26.0344 -0.903421 31.0737 1.83903C34.6844 4.04722 37.5696 7.35248 39.2811 11.2999ZM2.3808 9.9283C4.41788 6.20787 7.25711 5.03996 9.42651 5.97963C12.3469 7.58953 13.561 11.9158 13.561 16.8796C13.561 17.082 13.5638 17.2455 13.5663 17.3975C13.5708 17.6716 13.5747 17.9082 13.561 18.2675V31.2373C13.561 31.9266 14.1068 32.4854 14.7802 32.4854H17.698C18.3713 32.4854 18.9171 31.9266 18.9171 31.2373V26.127C19.4434 26.7909 20.1614 27.4729 21.1295 28.0192C32.7531 35.2621 17.4084 43.3112 8.20127 36.3057C4.84192 33.7498 2.09548 29.5699 0.860414 25.6471C0.30071 23.7527 0 21.7448 0 19.6656C0 16.1475 0.860966 12.8334 2.3808 9.9283Z" fill="#2B6AF6"/>
</svg>
